<?xml version="1.0" encoding="utf-8"?>
<!-- Generator: Adobe Illustrator 21.0.2, SVG Export Plug-In . SVG Version: 6.00 Build 0)  -->
<svg version="1.1" id="Layer_1" xmlns="http://www.w3.org/2000/svg" xmlns:xlink="http://www.w3.org/1999/xlink" x="0px" y="0px"
	 width="205px" height="28px" viewBox="0 0 205 28" style="enable-background:new 0 0 205 28;" xml:space="preserve">
<style type="text/css">
	.st0{fill:#EC6C31;}
	.st1{fill:#0086C8;}
	.st2{fill:#E84281;}
	.st3{fill:#6C326C;}
	.st4{fill:#FFCB1B;}
	.st5{fill:#177F45;}
</style>
<rect id="t2" x="193" y="6" class="st0" width="3.3" height="21"/>
<rect id="t1" x="185" class="st1" width="20" height="3.3"/>
<rect id="i" x="162" class="st2" width="3.3" height="27"/>
<polygon id="r3" class="st3" points="139.2,27 133,17 136.8,17 143,27 "/>
<path id="r2" class="st4" d="M133.4,0c4.4,0,7.6,3,7.6,7c0,4-3.5,7.1-7.6,7.1H127V11h6.4c2,0,4.3-1.7,4.3-4c0-2.2-1.8-3.9-4.3-3.9
	H127V0H133.4L133.4,0z"/>
<rect id="r1" x="121" class="st5" width="3.3" height="27"/>
<path id="p2" class="st0" d="M94.4,0c4.4,0,7.6,3,7.6,7c0,4-3.5,7.1-7.6,7.1H88V11h6.4c2,0,4.3-1.7,4.3-4c0-2.2-1.8-3.9-4.3-3.9H88
	V0H94.4L94.4,0z"/>
<rect id="p1" x="82" class="st1" width="3.3" height="27"/>
<path id="s2" class="st5" d="M39.6,18H43c0,0.4,0.1,1.9,0.5,2.8c1.2,2.9,3.5,4.2,7.3,4.2c3.5,0,7.4-1.5,7.4-5c0-3.5-3.1-4.4-6.2-4.7
	v-3.2c4.8,0.4,9.5,2.3,9.5,7.8c0,5.3-5,8-10.7,8c-5.4,0-9.1-2-10.7-6.5C39.7,20.3,39.6,18.6,39.6,18"/>
<path id="s1" class="st2" d="M60,5.4C58.7,1.8,54.8,0,50.2,0C45.7,0,40,2.1,40,7.6c0,5.5,4.3,7.4,9,7.5v-3.2
	c-2.9-0.2-5.7-1.2-5.7-4.3c0-3.5,3.7-4.6,6.8-4.6c3.3,0,5.9,1.1,6.7,3.7C57,7.2,57.1,7.7,57.2,8c0,0,3.4,0,3.4,0
	C60.5,7.6,60.5,6.6,60,5.4"/>
<rect id="e3" y="24" class="st1" width="20" height="3.3"/>
<rect id="e2" y="12" class="st4" width="20" height="3.3"/>
<rect id="e1" class="st3" width="20" height="3.3"/>
</svg>
